<svg width="151" height="27" viewBox="0 0 151 27" fill="none" xmlns="http://www.w3.org/2000/svg">
<path d="M0.792001 21.1921C0.776001 21.0161 0.768001 20.8241 0.768001 20.6161C0.768001 20.4081 0.768001 20.1681 0.768001 19.8961C0.768001 19.2081 0.784001 18.3921 0.816001 17.4481C0.848001 16.4881 0.896001 15.4721 0.960001 14.4001C1.024 13.3121 1.088 12.2241 1.152 11.1361C1.216 10.0321 1.28 8.97613 1.344 7.96813C1.424 6.96013 1.496 6.05613 1.56 5.25613C1.208 5.36813 0.896001 5.47213 0.624001 5.56813L7.15256e-07 1.53613C1.808 1.02413 3.488 0.640131 5.04 0.384132C6.608 0.128132 8.024 0.000132561 9.288 0.000132561C11.864 0.000132561 13.832 0.488132 15.192 1.46413C16.552 2.44013 17.232 3.85613 17.232 5.71213C17.232 6.76813 17 7.65613 16.536 8.37613C16.072 9.08013 15.416 9.66413 14.568 10.1281C16.648 11.1841 17.688 12.9041 17.688 15.2881C17.688 16.3441 17.488 17.2321 17.088 17.9521C16.704 18.6561 16.208 19.2241 15.6 19.6561C14.992 20.0881 14.344 20.4081 13.656 20.6161C12.984 20.8401 12.344 20.9841 11.736 21.0481C11.144 21.1281 10.68 21.1681 10.344 21.1681C9.512 21.1681 8.624 21.0881 7.68 20.9281C6.736 20.7681 5.816 20.5281 4.92 20.2081C4.92 20.5281 4.92 20.8321 4.92 21.1201L0.792001 21.1921ZM9.384 4.00813C8.808 4.00813 8.2 4.04013 7.56 4.10413C6.936 4.15213 6.312 4.23213 5.688 4.34413C5.592 5.51213 5.496 6.87213 5.4 8.42413C5.608 8.44013 5.816 8.44813 6.024 8.44813C6.248 8.44813 6.472 8.44813 6.696 8.44813C10.92 8.44813 13.032 7.58413 13.032 5.85613C13.032 5.28013 12.704 4.83213 12.048 4.51213C11.408 4.17613 10.52 4.00813 9.384 4.00813ZM7.248 12.2401C6.912 12.2401 6.568 12.2401 6.216 12.2401C5.88 12.2401 5.536 12.2481 5.184 12.2641C5.152 12.9681 5.12 13.6721 5.088 14.3761C5.072 15.0801 5.048 15.7761 5.016 16.4641C5.912 16.7361 6.792 16.9361 7.656 17.0641C8.52 17.1761 9.264 17.2321 9.888 17.2321C11.216 17.2321 12.168 17.0721 12.744 16.7521C13.32 16.4161 13.608 15.8721 13.608 15.1201C13.608 14.1921 13.056 13.4801 11.952 12.9841C10.864 12.4881 9.296 12.2401 7.248 12.2401ZM30.0002 21.1441C28.4962 21.1441 27.1282 20.8641 25.8962 20.3041C24.6642 19.7601 23.6002 19.0001 22.7042 18.0241C21.8082 17.0481 21.1202 15.9361 20.6402 14.6881C20.1602 13.4401 19.9202 12.1201 19.9202 10.7281C19.9202 9.44813 20.1122 8.19213 20.4962 6.96013C20.8802 5.71213 21.4642 4.58413 22.2482 3.57613C23.0322 2.55213 24.0242 1.73613 25.2242 1.12813C26.4402 0.520132 27.8722 0.216131 29.5202 0.216131C31.2322 0.216131 32.7202 0.512132 33.9842 1.10413C35.2482 1.68013 36.2882 2.45613 37.1042 3.43213C37.9202 4.40813 38.5282 5.51213 38.9282 6.74413C39.3282 7.97613 39.5282 9.24013 39.5282 10.5361C39.5282 12.0881 39.2962 13.5121 38.8322 14.8081C38.3682 16.1041 37.7122 17.2321 36.8642 18.1921C36.0162 19.1361 35.0082 19.8641 33.8402 20.3761C32.6722 20.8881 31.3922 21.1441 30.0002 21.1441ZM30.0002 17.1361C30.9602 17.1361 31.8482 16.9041 32.6642 16.4401C33.4802 15.9601 34.1362 15.2161 34.6322 14.2081C35.1282 13.2001 35.3762 11.8881 35.3762 10.2721C35.3762 8.88013 35.1042 7.73613 34.5602 6.84013C34.0162 5.94413 33.3122 5.28013 32.4482 4.84813C31.5842 4.41613 30.6802 4.20013 29.7362 4.20013C28.6642 4.20013 27.7602 4.39213 27.0242 4.77613C26.2882 5.16013 25.6962 5.68013 25.2482 6.33613C24.8002 6.97613 24.4802 7.69613 24.2882 8.49613C24.0962 9.29613 24.0002 10.1201 24.0002 10.9681C24.0002 11.8001 24.1602 12.5921 24.4802 13.3441C24.8002 14.0801 25.2322 14.7361 25.7762 15.3121C26.3362 15.8721 26.9762 16.3201 27.6962 16.6561C28.4162 16.9761 29.1842 17.1361 30.0002 17.1361ZM52.008 21.1441C50.504 21.1441 49.136 20.8641 47.904 20.3041C46.672 19.7601 45.608 19.0001 44.712 18.0241C43.816 17.0481 43.128 15.9361 42.648 14.6881C42.168 13.4401 41.928 12.1201 41.928 10.7281C41.928 9.44813 42.12 8.19213 42.504 6.96013C42.888 5.71213 43.472 4.58413 44.256 3.57613C45.04 2.55213 46.032 1.73613 47.232 1.12813C48.448 0.520132 49.88 0.216131 51.528 0.216131C53.24 0.216131 54.728 0.512132 55.992 1.10413C57.256 1.68013 58.296 2.45613 59.112 3.43213C59.928 4.40813 60.536 5.51213 60.936 6.74413C61.336 7.97613 61.536 9.24013 61.536 10.5361C61.536 12.0881 61.304 13.5121 60.84 14.8081C60.376 16.1041 59.72 17.2321 58.872 18.1921C58.024 19.1361 57.016 19.8641 55.848 20.3761C54.68 20.8881 53.4 21.1441 52.008 21.1441ZM52.008 17.1361C52.968 17.1361 53.856 16.9041 54.672 16.4401C55.488 15.9601 56.144 15.2161 56.64 14.2081C57.136 13.2001 57.384 11.8881 57.384 10.2721C57.384 8.88013 57.112 7.73613 56.568 6.84013C56.024 5.94413 55.32 5.28013 54.456 4.84813C53.592 4.41613 52.688 4.20013 51.744 4.20013C50.672 4.20013 49.768 4.39213 49.032 4.77613C48.296 5.16013 47.704 5.68013 47.256 6.33613C46.808 6.97613 46.488 7.69613 46.296 8.49613C46.104 9.29613 46.008 10.1201 46.008 10.9681C46.008 11.8001 46.168 12.5921 46.488 13.3441C46.808 14.0801 47.24 14.7361 47.784 15.3121C48.344 15.8721 48.984 16.3201 49.704 16.6561C50.424 16.9761 51.192 17.1361 52.008 17.1361ZM64.2958 21.2401C64.2478 19.8481 64.2238 18.2801 64.2238 16.5361C64.2238 14.9041 64.2478 13.1761 64.2958 11.3521C64.3438 9.52813 64.4238 7.67213 64.5358 5.78413C64.6478 3.89613 64.7838 2.05613 64.9438 0.264132L69.1198 0.336133C68.9758 1.45613 68.8478 2.60013 68.7358 3.76813C68.6398 4.92013 68.5598 6.08013 68.4958 7.24813C69.1678 6.78413 69.9758 6.24813 70.9198 5.64013C71.8798 5.01613 72.9038 4.39213 73.9918 3.76813C75.0798 3.12813 76.1678 2.52013 77.2558 1.94413C78.3598 1.36813 79.3918 0.880132 80.3518 0.480132L81.5278 4.56013C80.5518 4.96013 79.5678 5.40013 78.5758 5.88013C77.5998 6.36013 76.6638 6.84013 75.7678 7.32013C74.8878 7.78413 74.1038 8.23213 73.4158 8.66413C72.7278 9.08013 72.1838 9.44813 71.7838 9.76813C71.3838 10.0721 71.1838 10.2961 71.1838 10.4401C71.1838 10.6481 71.4958 11.0001 72.1198 11.4961C72.7438 11.9921 73.5918 12.5761 74.6638 13.2481C75.7358 13.9201 76.9518 14.6241 78.3118 15.3601C79.6878 16.0961 81.1118 16.8161 82.5838 17.5201L80.3518 21.2161C78.5278 20.2721 76.8478 19.3281 75.3118 18.3841C73.7918 17.4241 72.4318 16.5201 71.2318 15.6721C70.0478 14.8241 69.0638 14.0961 68.2798 13.4881C68.2798 14.0801 68.2798 14.6721 68.2798 15.2641C68.2798 16.3361 68.2878 17.3761 68.3038 18.3841C68.3358 19.3761 68.3678 20.3041 68.3998 21.1681L64.2958 21.2401ZM93.3041 21.4561C91.9601 21.4561 90.7121 21.2561 89.5601 20.8561C88.4081 20.4561 87.3681 19.9281 86.4401 19.2721C85.5281 18.6001 84.7281 17.8801 84.0401 17.1121L86.4401 13.2961C86.6481 13.8401 86.9921 14.3601 87.4721 14.8561C87.9681 15.3521 88.5441 15.7921 89.2001 16.1761C89.8561 16.5601 90.5441 16.8641 91.2641 17.0881C92.0001 17.3121 92.7201 17.4241 93.4241 17.4241C94.4801 17.4241 95.3201 17.2561 95.9441 16.9201C96.5681 16.5681 96.8801 16.1041 96.8801 15.5281C96.8801 15.0801 96.7361 14.7121 96.4481 14.4241C96.1761 14.1201 95.8561 13.8801 95.4881 13.7041C95.1361 13.5121 94.8321 13.3441 94.5761 13.2001C94.3841 13.1041 94.0321 12.9601 93.5201 12.7681C93.0241 12.5601 92.4641 12.3361 91.8401 12.0961C91.2161 11.8561 90.6241 11.6321 90.0641 11.4241C89.5041 11.2001 89.0641 11.0161 88.7441 10.8721C86.3601 9.80013 85.1681 8.14413 85.1681 5.90413C85.1681 5.18413 85.3041 4.48013 85.5761 3.79213C85.8641 3.08813 86.2961 2.44813 86.8721 1.87213C87.4481 1.29613 88.1841 0.840132 89.0801 0.504132C89.9761 0.168132 91.0481 0.000132561 92.2961 0.000132561C93.6561 0.000132561 94.8641 0.152133 95.9201 0.456132C96.9761 0.744133 97.9041 1.11213 98.7041 1.56013C99.5201 2.00813 100.216 2.48013 100.792 2.97613L98.5841 6.67213C96.8081 4.91213 94.8001 4.03213 92.5601 4.03213C91.6161 4.03213 90.8961 4.13613 90.4001 4.34413C89.9201 4.53613 89.5921 4.76013 89.4161 5.01613C89.2561 5.25613 89.1761 5.45613 89.1761 5.61613C89.1761 5.88813 89.2721 6.16013 89.4641 6.43213C89.6721 6.70413 90.1281 6.99213 90.8321 7.29613C91.1201 7.42413 91.5041 7.58413 91.9841 7.77613C92.4801 7.95213 93.0241 8.15213 93.6161 8.37613C94.2241 8.60013 94.8161 8.84013 95.3921 9.09613C95.9841 9.33613 96.5201 9.58413 97.0001 9.84013C97.5761 10.1601 98.1681 10.5521 98.7761 11.0161C99.3841 11.4801 99.8961 12.0561 100.312 12.7441C100.744 13.4161 100.96 14.2401 100.96 15.2161C100.96 15.8081 100.848 16.4641 100.624 17.1841C100.4 17.8881 100.008 18.5681 99.4481 19.2241C98.8881 19.8801 98.1121 20.4161 97.1201 20.8321C96.1281 21.2481 94.8561 21.4561 93.3041 21.4561ZM103.194 21.1921C103.194 20.2161 103.194 18.9681 103.194 17.4481C103.21 15.9121 103.226 14.2081 103.242 12.3361C103.274 10.4641 103.314 8.49613 103.362 6.43213C103.426 4.36813 103.498 2.30413 103.578 0.240132L107.658 0.216131C107.594 1.12813 107.53 2.24013 107.466 3.55213C107.402 4.86413 107.346 6.27213 107.298 7.77613C108.402 6.75213 109.666 6.24013 111.09 6.24013C112.066 6.24013 112.874 6.41613 113.514 6.76813C114.17 7.12013 114.698 7.58413 115.098 8.16013C115.498 8.72013 115.802 9.33613 116.01 10.0081C116.218 10.6801 116.362 11.3441 116.442 12.0001C116.522 12.6401 116.562 13.2081 116.562 13.7041C116.562 14.7601 116.554 15.8081 116.538 16.8481C116.522 17.8881 116.506 18.8001 116.49 19.5841C116.49 20.3681 116.49 20.9201 116.49 21.2401L112.29 21.2641C112.354 20.6401 112.394 19.9201 112.41 19.1041C112.442 18.2881 112.458 17.4481 112.458 16.5841C112.474 15.7041 112.482 14.8721 112.482 14.0881C112.482 11.4961 111.874 10.2001 110.658 10.2001C110.29 10.2001 109.882 10.2961 109.434 10.4881C108.986 10.6801 108.554 10.9841 108.138 11.4001C107.738 11.8161 107.418 12.3681 107.178 13.0561C107.162 14.1121 107.154 15.1361 107.154 16.1281C107.154 17.0401 107.162 17.8961 107.178 18.6961C107.21 19.4801 107.234 20.2721 107.25 21.0721L103.194 21.1921ZM126.047 21.5041C124.767 21.5041 123.647 21.2961 122.687 20.8801C121.743 20.4641 120.959 19.8961 120.335 19.1761C119.711 18.4401 119.247 17.6001 118.943 16.6561C118.639 15.7121 118.487 14.7201 118.487 13.6801C118.487 12.6241 118.671 11.6481 119.039 10.7521C119.423 9.84013 119.943 9.04813 120.599 8.37613C121.271 7.70413 122.055 7.18413 122.951 6.81613C123.847 6.43213 124.823 6.24013 125.879 6.24013C126.983 6.24013 128.007 6.43213 128.951 6.81613C129.895 7.20013 130.719 7.73613 131.423 8.42413C132.127 9.11213 132.671 9.92013 133.055 10.8481C133.455 11.7761 133.655 12.7841 133.655 13.8721C133.655 16.2881 132.991 18.1681 131.663 19.5121C130.335 20.8401 128.463 21.5041 126.047 21.5041ZM126.023 17.6161C127.191 17.6161 128.079 17.2881 128.687 16.6321C129.311 15.9761 129.623 15.0321 129.623 13.8001C129.623 12.6961 129.287 11.8081 128.615 11.1361C127.943 10.4641 127.063 10.1281 125.975 10.1281C125.319 10.1281 124.719 10.3041 124.175 10.6561C123.631 10.9921 123.191 11.4481 122.855 12.0241C122.535 12.5841 122.375 13.2081 122.375 13.8961C122.375 14.5041 122.495 15.0961 122.735 15.6721C122.991 16.2481 123.391 16.7201 123.935 17.0881C124.479 17.4401 125.175 17.6161 126.023 17.6161ZM135.728 26.3521C135.616 25.0721 135.536 23.7841 135.488 22.4881C135.44 21.1921 135.416 19.6961 135.416 18.0001C135.416 15.9361 135.448 13.8801 135.512 11.8321C135.576 9.78413 135.672 7.91213 135.8 6.21613L139.928 6.33613C139.88 6.70413 139.84 7.09613 139.808 7.51213C140.384 7.12813 141 6.84813 141.656 6.67213C142.328 6.49613 143.008 6.40813 143.696 6.40813C144.576 6.40813 145.432 6.55213 146.264 6.84013C147.096 7.11213 147.848 7.55213 148.52 8.16013C149.192 8.75213 149.72 9.52013 150.104 10.4641C150.504 11.4081 150.704 12.5441 150.704 13.8721C150.704 15.1841 150.504 16.3281 150.104 17.3041C149.704 18.2801 149.168 19.0801 148.496 19.7041C147.824 20.3441 147.072 20.8161 146.24 21.1201C145.408 21.4401 144.552 21.6001 143.672 21.6001C142.056 21.6001 140.632 21.1201 139.4 20.1601C139.432 21.1841 139.48 22.1681 139.544 23.1121C139.608 24.0721 139.688 25.0481 139.784 26.0401L135.728 26.3521ZM143.048 10.3921C141.464 10.3921 140.272 11.1681 139.472 12.7201C139.424 13.6801 139.392 14.6561 139.376 15.6481C139.76 16.1601 140.256 16.6081 140.864 16.9921C141.472 17.3601 142.248 17.5441 143.192 17.5441C145.448 17.5441 146.576 16.2561 146.576 13.6801C146.576 12.9921 146.448 12.4321 146.192 12.0001C145.936 11.5681 145.616 11.2401 145.232 11.0161C144.848 10.7761 144.456 10.6161 144.056 10.5361C143.656 10.4401 143.32 10.3921 143.048 10.3921Z" fill="white"/>
</svg>
